<svg id="make_bid_icon" data-name="make bid icon" xmlns="http://www.w3.org/2000/svg" width="76.012" height="76.043" viewBox="0 0 76.012 76.043">
  <g id="Group_19" data-name="Group 19" transform="translate(31.679 5.066)">
    <g id="Group_18" data-name="Group 18">
      <path id="Path_37" data-name="Path 37" d="M212.613,49.727A6.337,6.337,0,0,0,206.4,44.65a3.8,3.8,0,1,1,3.8-3.8h2.535a6.349,6.349,0,0,0-5.07-6.21V31.976h-2.535v2.662A6.337,6.337,0,0,0,206.4,47.185a3.8,3.8,0,1,1-3.8,3.8h-2.535a6.349,6.349,0,0,0,5.07,6.21V59.86h2.535V57.2A6.337,6.337,0,0,0,212.613,49.727Z" transform="translate(-200.051 -31.976)" fill="#549CFF"/>
    </g>
  </g>
  <g id="Group_21" data-name="Group 21" transform="translate(19.012)">
    <g id="Group_20" data-name="Group 20">
      <path id="Path_38" data-name="Path 38" d="M158.121,19.008a19.012,19.012,0,1,0-22.814,18.631V50.694H134.04a1.268,1.268,0,0,0-.842.321l-11.407,10.14a1.268,1.268,0,0,0-.426.947V74.775a1.267,1.267,0,0,0,1.267,1.267h24.081a3.786,3.786,0,0,0,2.814-6.337,3.744,3.744,0,0,0,0-5.07,3.744,3.744,0,0,0,0-5.07,3.786,3.786,0,0,0-2.814-6.337h-1.5a3.8,3.8,0,0,0-2.3-2.3V37.639A19.043,19.043,0,0,0,158.121,19.008ZM139.11,61.467V58.3h-2.535v3.169a4.427,4.427,0,0,0,1.894,3.624,3.754,3.754,0,0,0,.362,4.615,3.686,3.686,0,0,0-.76,3.8H123.9V62.67l10.621-9.441h7.123a1.268,1.268,0,0,1,1.267,1.267v6.971a1.9,1.9,0,1,1-3.8,0Zm-1.267-10.773V37.955c.421.028.839.065,1.267.065s.847-.037,1.267-.065V50.694Zm8.872,22.814h-5.07a1.267,1.267,0,0,1,0-2.535h5.07a1.267,1.267,0,0,1,0,2.535Zm-1.267-17.744h1.267a1.267,1.267,0,0,1,0,2.535h-1.267Zm0,5.7v-.634h1.267a1.267,1.267,0,0,1,0,2.535H145A4.388,4.388,0,0,0,145.447,61.467Zm1.267,4.436a1.267,1.267,0,0,1,0,2.535h-5.07a1.267,1.267,0,0,1,0-2.535Zm-7.6-30.419a16.477,16.477,0,1,1,16.477-16.477A16.5,16.5,0,0,1,139.11,35.484Z" transform="translate(-120.098 0)" fill="#549CFF"/>
    </g>
  </g>
  <g id="Group_23" data-name="Group 23" transform="translate(7.605 43.089)">
    <g id="Group_22" data-name="Group 22">
      <path id="Path_39" data-name="Path 39" d="M51.9,278.312a1.267,1.267,0,1,1,1.267-1.267H55.7a3.8,3.8,0,0,0-2.535-3.569v-1.5H50.633v1.5a3.793,3.793,0,0,0,1.267,7.371,1.267,1.267,0,1,1-1.267,1.267H48.1a3.8,3.8,0,0,0,2.535,3.569v1.5h2.535v-1.5a3.793,3.793,0,0,0-1.267-7.371Z" transform="translate(-48.098 -271.975)" fill="#549CFF"/>
    </g>
  </g>
  <g id="Group_25" data-name="Group 25" transform="translate(0 39.283)">
    <g id="Group_24" data-name="Group 24">
      <path id="Path_40" data-name="Path 40" d="M11.509,247.949a11.407,11.407,0,0,0-1.272,22.743v14.017h2.535V270.692a11.407,11.407,0,0,0-1.263-22.743Zm0,20.283a8.872,8.872,0,1,1,8.872-8.872A8.872,8.872,0,0,1,11.5,268.232Z" transform="translate(-0.098 -247.949)" fill="#549CFF"/>
    </g>
  </g>
  <g id="Group_27" data-name="Group 27" transform="translate(60.837 43.089)">
    <g id="Group_26" data-name="Group 26">
      <path id="Path_41" data-name="Path 41" d="M387.9,278.312a1.267,1.267,0,1,1,1.267-1.267H391.7a3.8,3.8,0,0,0-2.535-3.569v-1.5h-2.535v1.5a3.793,3.793,0,0,0,1.267,7.371,1.267,1.267,0,1,1-1.267,1.267H384.1a3.8,3.8,0,0,0,2.535,3.569v1.5h2.535v-1.5a3.793,3.793,0,0,0-1.267-7.371Z" transform="translate(-384.098 -271.975)" fill="#549CFF"/>
    </g>
  </g>
  <g id="Group_29" data-name="Group 29" transform="translate(53.269 39.287)">
    <g id="Group_28" data-name="Group 28">
      <path id="Path_42" data-name="Path 42" d="M358.993,258.079a11.373,11.373,0,1,0-12.564,12.636v14.017h2.535V270.715A11.407,11.407,0,0,0,358.993,258.079Zm-11.3,10.176a8.872,8.872,0,1,1,8.872-8.872A8.872,8.872,0,0,1,347.7,268.255Z" transform="translate(-336.326 -247.976)" fill="#549CFF"/>
    </g>
  </g>
</svg>
