<svg id="View_enqu_icon" data-name="View enqu icon" xmlns="http://www.w3.org/2000/svg" width="70.065" height="61.187" viewBox="0 0 70.065 61.187">
  <g id="Group_33" data-name="Group 33" transform="translate(0 0)">
    <g id="Group_32" data-name="Group 32" transform="translate(0 0)">
      <path id="Path_44" data-name="Path 44" d="M65.786,32.437H12.3A4.284,4.284,0,0,0,8.02,36.716V76.6a4.254,4.254,0,0,0,.324,1.633L3.516,83.062h0L1.457,85.121a4.981,4.981,0,0,0,3.522,8.5q.249,0,.495-.024.123-.012.244-.03c.113-.017.224-.039.335-.063l.086-.019.014,0q.153-.037.3-.083c.058-.018.114-.039.171-.059.04-.014.081-.026.121-.041l.042-.017.144-.059c.066-.028.13-.058.195-.088s.1-.05.156-.077q.113-.059.223-.124l.11-.067q.122-.076.24-.159l.055-.039c.088-.064.173-.132.257-.2l.073-.062c.089-.077.177-.157.261-.241l2.058-2.058h0l9.227-9.227H42.1a12.627,12.627,0,0,0,25.221-.285A4.286,4.286,0,0,0,70.066,76.6V36.716A4.284,4.284,0,0,0,65.786,32.437ZM6.566,90.23a2.243,2.243,0,0,1-3.738-.948q-.023-.078-.04-.158a2.247,2.247,0,0,1-.046-.32q-.006-.081-.006-.161a2.238,2.238,0,0,1,.656-1.587l1.09-1.09L7.656,89.14ZM18.653,78.143,15.916,80.88,9.592,87.2,6.418,84.031,10.15,80.3l2.156-2.156L18.5,71.951l3.174,3.174Zm5.4-8.576-.686,3.386-2.7-2.7ZM67.328,76.6a1.533,1.533,0,0,1-.274.875,12.64,12.64,0,0,0-16.12-9.434c-.283.088-.567.188-.845.3a1.368,1.368,0,0,0,1,2.548c.217-.085.439-.163.661-.232A9.893,9.893,0,0,1,64.592,80.1c0,.263-.013.524-.034.782a9.888,9.888,0,0,1-19.715,0c-.02-.258-.034-.519-.034-.782A9.952,9.952,0,0,1,45,78.143a9.821,9.821,0,0,1,.266-1.035,1.368,1.368,0,1,0-2.609-.826,12.562,12.562,0,0,0-.436,1.862h-19.7l2.05-2.05.333-.333a4.049,4.049,0,0,0,.555-.692q.049-.078.095-.158a4.032,4.032,0,0,0,.453-1.205l1-4.962c.01-.05.015-.1.021-.151,0-.024.008-.049.01-.073s0-.063,0-.094,0-.087,0-.13c0-.013,0-.026,0-.038a1.829,1.829,0,0,0-.02-.182c0-.012-.006-.024-.008-.036a1.826,1.826,0,0,0-.042-.179v0a1.812,1.812,0,0,0-2.094-1.25l-4.962,1a4.026,4.026,0,0,0-2.054,1.1l-.333.333-6.772,6.772V46.635H67.328Zm0-32.7H10.757V36.716A1.544,1.544,0,0,1,12.3,35.174H65.786a1.544,1.544,0,0,1,1.542,1.542V43.9Z" transform="translate(-0.001 -32.437)" fill="#549CFF"/>
      <path id="Path_45" data-name="Path 45" d="M355.1,337.291l.648,1.819.657,1.844a.606.606,0,0,1,0,.417l-.169.475-1.136,3.188a1.819,1.819,0,0,0,.473,1.946,2.066,2.066,0,0,0,1.429.567,2.136,2.136,0,0,0,.811-.161l10.092-4.141a2.315,2.315,0,0,0,1.352-1.4,2.171,2.171,0,0,0,.111-.684,2.242,2.242,0,0,0-1.394-2.053l-.068-.031-10.092-4.141a2.093,2.093,0,0,0-2.24.406A1.819,1.819,0,0,0,355.1,337.291Zm3.884,2.745-.33-.925-.362-1.017,2.478,1.017,5,2.053-1.667.684-5.814,2.386.692-1.942a3.414,3.414,0,0,0,.122-.444A3.317,3.317,0,0,0,358.981,340.035Z" transform="translate(-306.411 -293.404)" fill="#549CFF"/>
      <path id="Path_46" data-name="Path 46" d="M132.355,172.735h11.222a1.368,1.368,0,1,0,0-2.737H132.355a1.368,1.368,0,1,0,0,2.737Z" transform="translate(-113.062 -151.173)" fill="#549CFF"/>
      <path id="Path_47" data-name="Path 47" d="M132.355,224.174h28.769a1.368,1.368,0,0,0,0-2.737H132.355a1.368,1.368,0,1,0,0,2.737Z" transform="translate(-113.062 -195.573)" fill="#549CFF"/>
      <path id="Path_48" data-name="Path 48" d="M253.1,171.894a1.351,1.351,0,0,0,.126.237,1.33,1.33,0,0,0,.378.378,1.35,1.35,0,0,0,.237.126,1.285,1.285,0,0,0,.256.078,1.314,1.314,0,0,0,.534,0,1.285,1.285,0,0,0,.256-.078,1.351,1.351,0,0,0,.237-.126,1.33,1.33,0,0,0,.378-.378,1.352,1.352,0,0,0,.126-.237,1.285,1.285,0,0,0,.078-.256,1.314,1.314,0,0,0,0-.534,1.285,1.285,0,0,0-.078-.256,1.349,1.349,0,0,0-.126-.237,1.33,1.33,0,0,0-.378-.378,1.351,1.351,0,0,0-.237-.126,1.284,1.284,0,0,0-.256-.078,1.347,1.347,0,0,0-.534,0,1.284,1.284,0,0,0-.256.078,1.35,1.35,0,0,0-.237.126,1.33,1.33,0,0,0-.378.378,1.349,1.349,0,0,0-.126.237,1.285,1.285,0,0,0-.078.256,1.314,1.314,0,0,0,0,.534A1.284,1.284,0,0,0,253.1,171.894Z" transform="translate(-218.371 -151.178)" fill="#549CFF"/>
      <path id="Path_49" data-name="Path 49" d="M429.345,61.825a1.369,1.369,0,0,0-1.935,0l-1.016,1.016-1.016-1.016a1.369,1.369,0,0,0-1.935,1.935l1.016,1.016-1.016,1.016a1.368,1.368,0,1,0,1.935,1.935l1.016-1.016,1.016,1.016a1.369,1.369,0,0,0,1.935-1.935l-1.016-1.016,1.016-1.016A1.368,1.368,0,0,0,429.345,61.825Z" transform="translate(-365.149 -57.457)" fill="#549CFF"/>
      <path id="Path_50" data-name="Path 50" d="M359.159,86.42h-3.572a1.368,1.368,0,1,0,0,2.737h3.572a1.368,1.368,0,1,0,0-2.737Z" transform="translate(-305.745 -79.033)" fill="#549CFF"/>
      <path id="Path_51" data-name="Path 51" d="M333.426,314.152a1.4,1.4,0,0,0-.126-.237,1.374,1.374,0,0,0-.17-.208,1.31,1.31,0,0,0-.208-.17,1.353,1.353,0,0,0-.237-.126,1.382,1.382,0,0,0-.256-.078,1.347,1.347,0,0,0-.534,0,1.429,1.429,0,0,0-.257.078,1.391,1.391,0,0,0-.235.126,1.309,1.309,0,0,0-.208.17,1.374,1.374,0,0,0-.17.208,1.31,1.31,0,0,0-.126.237,1.284,1.284,0,0,0-.078.256,1.347,1.347,0,0,0-.027.267,1.361,1.361,0,0,0,.027.268,1.313,1.313,0,0,0,.078.256,1.356,1.356,0,0,0,.126.237,1.374,1.374,0,0,0,.17.208,1.387,1.387,0,0,0,.443.3,1.429,1.429,0,0,0,.257.078,1.384,1.384,0,0,0,.534,0,1.382,1.382,0,0,0,.256-.078,1.353,1.353,0,0,0,.237-.126,1.39,1.39,0,0,0,.208-.17,1.376,1.376,0,0,0,.17-.208,1.453,1.453,0,0,0,.126-.237,1.315,1.315,0,0,0,.078-.256,1.364,1.364,0,0,0,.027-.268,1.35,1.35,0,0,0-.027-.267A1.289,1.289,0,0,0,333.426,314.152Z" transform="translate(-285.527 -274.871)" fill="#549CFF"/>
    </g>
  </g>
</svg>
