<svg id="chat_icon" data-name="chat icon" xmlns="http://www.w3.org/2000/svg" width="51.157" height="51.157" viewBox="0 0 51.157 51.157">
  <g id="Group_31" data-name="Group 31" transform="translate(0 0)">
    <g id="Group_30" data-name="Group 30" transform="translate(0 0)">
      <path id="Path_43" data-name="Path 43" d="M46.814,30.632a2,2,0,0,0-3.705,1.5l2.354,5.822-6.99-3.081a2,2,0,0,0-1.59-.009A19.268,19.268,0,0,1,29.276,36.4c-10.7,0-17.885-8.376-17.885-16.2,0-8.933,8.023-16.2,17.885-16.2s17.885,7.267,17.885,16.2a16.3,16.3,0,0,1-.178,2.289,2,2,0,1,0,3.953.59,20.165,20.165,0,0,0,.222-2.879A19.314,19.314,0,0,0,44.685,5.854,22.71,22.71,0,0,0,29.276,0,22.711,22.711,0,0,0,13.867,5.854,19.422,19.422,0,0,0,7.473,18.477,16.154,16.154,0,0,0,0,31.926,15.5,15.5,0,0,0,3.065,41.19L.146,48.41A2,2,0,0,0,2.8,50.987l8.416-3.71a19.019,19.019,0,0,0,6.665,1.187c.05,0,.1,0,.148-.007a18.914,18.914,0,0,0,9.4-2.549,17.2,17.2,0,0,0,6.045-5.887,23,23,0,0,0,4.151-1.154l10.721,4.726a2,2,0,0,0,2.659-2.578ZM17.886,44.463c-.027,0-.054,0-.081,0a14.987,14.987,0,0,1-5.839-1.194,2,2,0,0,0-1.59.009L5.7,45.345l1.51-3.734a2,2,0,0,0-.332-2.045A11.664,11.664,0,0,1,4,31.926a11.889,11.889,0,0,1,3.694-8.513,20.173,20.173,0,0,0,5.911,10.8,22.337,22.337,0,0,0,14.538,6.151A14.686,14.686,0,0,1,17.886,44.463Z" transform="translate(0 0)" fill="#424242"/>
      <circle id="Ellipse_15" data-name="Ellipse 15" cx="2" cy="2" r="2" transform="translate(27.458 18.069)" fill="#424242"/>
      <ellipse id="Ellipse_16" data-name="Ellipse 16" cx="2.5" cy="2" rx="2.5" ry="2" transform="translate(34.458 18.069)" fill="#424242"/>
      <ellipse id="Ellipse_17" data-name="Ellipse 17" cx="1.5" cy="2" rx="1.5" ry="2" transform="translate(19.459 18.069)" fill="#424242"/>
    </g>
  </g>
</svg>
